<svg width="1124" height="216" viewBox="0 0 1124 216" fill="none" xmlns="http://www.w3.org/2000/svg">
<path d="M564.496 16.0455C564.496 7.18382 571.68 0 580.542 0H713.262C722.124 0 729.308 7.18382 729.308 16.0455V105.426H564.496V16.0455Z" fill="url(#paint0_linear_596_6945)"/>
<path d="M729.311 198.811C729.311 207.673 722.127 214.856 713.265 214.856L580.544 214.856C571.682 214.856 564.499 207.673 564.499 198.811L564.499 109.43L729.311 109.43L729.311 198.811Z" fill="#EFEFEF"/>
<path d="M0 17.0455C0 8.18382 7.18382 1 16.0455 1H148.954C157.816 1 165 8.18382 165 17.0455V106H0V17.0455Z" fill="url(#paint1_linear_596_6945)"/>
<path d="M165 199.954C165 208.816 157.816 216 148.954 216L16.0455 216C7.18382 216 1.46308e-05 208.816 1.3856e-05 199.955L5.64228e-06 106L165 106L165 199.954Z" fill="#EFEFEF"/>
<path d="M171 17.0455C171 8.18382 178.184 1 187.046 1H319.954C328.816 1 336 8.18382 336 17.0455V106H171V17.0455Z" fill="url(#paint2_linear_596_6945)"/>
<path d="M336 199.954C336 208.816 328.816 216 319.954 216L187.046 216C178.184 216 171 208.816 171 199.955L171 106L336 106L336 199.954Z" fill="#EFEFEF"/>
<path d="M394.348 16.0455C394.348 7.18382 401.531 0 410.393 0H543.114C551.976 0 559.16 7.18382 559.16 16.0455V105.426H394.348V16.0455Z" fill="url(#paint3_linear_596_6945)"/>
<path d="M559.16 198.811C559.16 207.673 551.976 214.856 543.115 214.856L410.394 214.856C401.532 214.856 394.348 207.673 394.348 198.811L394.348 109.43L559.16 109.43L559.16 198.811Z" fill="#EFEFEF"/>
<path d="M789.039 16.0455C789.039 7.18382 796.223 0 805.085 0H937.805C946.667 0 953.851 7.18382 953.851 16.0455V105.426H789.039V16.0455Z" fill="url(#paint4_linear_596_6945)"/>
<path d="M953.852 198.811C953.852 207.673 946.668 214.856 937.806 214.856L805.085 214.856C796.223 214.856 789.04 207.673 789.04 198.811L789.04 109.43L953.852 109.43L953.852 198.811Z" fill="#EFEFEF"/>
<path d="M959.188 16.0455C959.188 7.18382 966.371 0 975.233 0H1107.95C1116.82 0 1124 7.18382 1124 16.0455V105.426H959.188V16.0455Z" fill="url(#paint5_linear_596_6945)"/>
<path d="M1124 198.811C1124 207.673 1116.82 214.856 1107.95 214.856L975.234 214.856C966.372 214.856 959.188 207.673 959.188 198.811L959.188 109.43L1124 109.43L1124 198.811Z" fill="#EFEFEF"/>
<path d="M32.0273 162.714V52.5496L52.5481 32.0288H113.03L133.551 52.5496V162.714L113.03 183.235H52.5481L32.0273 162.714ZM107.63 172.002L121.023 158.61V56.6538L107.63 43.2613H57.9483L44.5558 56.6538V158.61L57.9483 172.002H107.63Z" fill="black"/>
<path d="M203.178 164.442V149.753H215.707V160.122L227.587 172.002H275.109L286.989 160.122V124.264L275.325 112.816H233.419V101.583H275.541L286.989 90.1351V54.9257L275.109 43.2613H228.883L217.003 54.9257V65.2941H204.474V50.8215L223.267 32.0288H280.725L299.518 50.8215V93.5912L285.693 107.2L299.518 121.024V164.442L280.725 183.235H221.971L203.178 164.442Z" fill="black"/>
<path d="M355.741 85.805V77.8127L361.141 72.6285H369.133L374.317 77.8127V85.805L369.133 91.2052H361.141L355.741 85.805ZM355.741 138.456V130.464L361.141 125.279H369.133L374.317 130.464V138.456L369.133 143.856H361.141L355.741 138.456Z" fill="black"/>
<path d="M499.255 151.481H424.948V128.369L491.911 32.0288H511.783V140.249H530.144V151.481H511.783V183.235H499.255V151.481ZM499.255 140.465V43.2613H497.959L437.045 130.961V140.465H499.255Z" fill="black"/>
<path d="M602.16 156.234L681.219 75.0145V54.9257L669.338 43.2613H625.704L613.824 54.9257V65.2941H601.296V50.8215L620.088 32.0288H674.954L693.747 50.8215V78.6866L614.688 159.906V172.002H694.611V183.235H602.16V156.234Z" fill="black"/>
<path d="M750.668 82.5564V74.5641L756.068 69.3799H764.061L769.245 74.5641V82.5564L764.061 87.9566H756.068L750.668 82.5564ZM750.668 135.207V127.215L756.068 122.031H764.061L769.245 127.215V135.207L764.061 140.608H756.068L750.668 135.207Z" fill="black"/>
<path d="M894.182 148.233H819.875V125.12L886.838 28.7803H906.711V137H925.071V148.233H906.711V179.986H894.182V148.233ZM894.182 137.216V40.0127H892.886L831.972 127.712V137.216H894.182Z" fill="black"/>
<path d="M997.087 152.985L1076.15 71.7659V51.6772L1064.27 40.0127H1020.63L1008.75 51.6772V62.0456H996.223V47.573L1015.02 28.7803H1069.88L1088.67 47.573V75.4381L1009.62 156.657V168.754H1089.54V179.986H997.087V152.985Z" fill="black"/>
<defs>
<linearGradient id="paint0_linear_596_6945" x1="646.902" y1="68.3936" x2="646.902" y2="105.426" gradientUnits="userSpaceOnUse">
<stop stop-color="#EFEFEF"/>
<stop offset="0.927885" stop-color="#DBDBDB"/>
</linearGradient>
<linearGradient id="paint1_linear_596_6945" x1="82.5" y1="69.1171" x2="82.5" y2="106" gradientUnits="userSpaceOnUse">
<stop stop-color="#EFEFEF"/>
<stop offset="0.927885" stop-color="#DBDBDB"/>
</linearGradient>
<linearGradient id="paint2_linear_596_6945" x1="253.5" y1="69.1171" x2="253.5" y2="106" gradientUnits="userSpaceOnUse">
<stop stop-color="#EFEFEF"/>
<stop offset="0.927885" stop-color="#DBDBDB"/>
</linearGradient>
<linearGradient id="paint3_linear_596_6945" x1="476.754" y1="68.3936" x2="476.754" y2="105.426" gradientUnits="userSpaceOnUse">
<stop stop-color="#EFEFEF"/>
<stop offset="0.927885" stop-color="#DBDBDB"/>
</linearGradient>
<linearGradient id="paint4_linear_596_6945" x1="871.445" y1="68.3936" x2="871.445" y2="105.426" gradientUnits="userSpaceOnUse">
<stop stop-color="#EFEFEF"/>
<stop offset="0.927885" stop-color="#DBDBDB"/>
</linearGradient>
<linearGradient id="paint5_linear_596_6945" x1="1041.59" y1="68.3936" x2="1041.59" y2="105.426" gradientUnits="userSpaceOnUse">
<stop stop-color="#EFEFEF"/>
<stop offset="0.927885" stop-color="#DBDBDB"/>
</linearGradient>
</defs>
</svg>
