<svg width="59" height="24" viewBox="0 0 59 24" fill="none" xmlns="http://www.w3.org/2000/svg">
<path d="M3.65322 5.10384H4.04839L7.13304 11.4382H10.8546L5.19388 0H0V11.4382H3.65322V5.10384Z" fill="black"/>
<path d="M3.65322 12.5684H0V23.9949H3.65322V12.5684Z" fill="black"/>
<path d="M18.7272 0H15.0723L15.0756 11.4382H18.7272V0Z" fill="black"/>
<path d="M15.0784 18.8994H14.4415L11.3985 12.5684H7.68359L13.3327 23.9949H18.7266V12.5684H15.0767L15.0784 18.8994Z" fill="black"/>
<path d="M31.7495 12.5684H27.9512V23.9999H31.7495V12.5684Z" fill="black"/>
<path d="M31.7477 3.51353H38.6106V0.00537109H21.0898V3.51353H27.9511V11.4386H31.7477V3.51353Z" fill="black"/>
<path d="M44.3549 5.3204L46.1607 3.53964H53.122L54.7977 5.19034V8.83522H58.596V3.82476L54.7727 0.00146484H44.5083L40.5566 3.95315V11.438H44.3549V5.3204Z" fill="black"/>
<path d="M40.5566 12.5684V20.0432L44.5083 23.9949H54.7727L58.596 20.1733V15.0928H54.7977V18.806L53.122 20.4567H46.1607L44.3549 18.6776V12.5684H40.5566Z" fill="black"/>
</svg>
