<svg width="32" height="32" viewBox="0 0 32 32" fill="none" xmlns="http://www.w3.org/2000/svg">
<path d="M4.02001 25.12L6.89001 27.99H25.12L27.99 25.12V6.87999L25.12 4.00999H6.88001L4.01001 6.87999V25.11L4.02001 25.12ZM6.02001 24.29V7.70999L6.19001 7.53999L14.6 15.95L6.14001 24.41L6.02001 24.29ZM7.71001 25.98L7.55001 25.82L16.01 17.36L24.46 25.81L24.29 25.98H7.71001ZM25.98 7.70999V24.29L25.87 24.4L17.42 15.95L25.82 7.54999L25.98 7.70999ZM24.29 6.01999L24.41 6.13999L16.01 14.54L7.60001 6.11999L7.71001 6.00999H24.29V6.01999Z" fill="black"/>
</svg>
