<svg width="32" height="32" viewBox="0 0 32 32" fill="none" xmlns="http://www.w3.org/2000/svg">
<path d="M7.14012 19.27C8.56012 19.27 9.77012 18.35 10.2101 17.07H27.7701V15.07H10.2501C9.85012 13.72 8.61012 12.74 7.14012 12.74C5.34012 12.74 3.87012 14.2 3.87012 16.01C3.87012 17.82 5.33012 19.28 7.14012 19.28V19.27ZM7.14012 14.73C7.84012 14.73 8.41012 15.3 8.41012 16C8.41012 16.7 7.84012 17.27 7.14012 17.27C6.44012 17.27 5.87012 16.7 5.87012 16C5.87012 15.3 6.44012 14.73 7.14012 14.73Z" fill="black"/>
<path d="M25.51 4.38C24.06 4.38 22.84 5.34 22.42 6.64H4.22998V8.64001H22.42C22.85 9.95001 24.06 10.91 25.51 10.91C27.31 10.91 28.78 9.45 28.78 7.64C28.78 5.83 27.32 4.38 25.51 4.38ZM25.51 8.91C24.81 8.91 24.24 8.34 24.24 7.64C24.24 6.94 24.81 6.38 25.51 6.38C26.21 6.38 26.78 6.95 26.78 7.64C26.78 8.33 26.21 8.91 25.51 8.91Z" fill="black"/>
<path d="M25.51 21.09C24.06 21.09 22.84 22.05 22.42 23.36H4.22998V25.36H22.42C22.85 26.67 24.06 27.63 25.51 27.63C27.31 27.63 28.78 26.17 28.78 24.36C28.78 22.55 27.32 21.09 25.51 21.09ZM25.51 25.62C24.81 25.62 24.24 25.05 24.24 24.35C24.24 23.65 24.81 23.08 25.51 23.08C26.21 23.08 26.78 23.65 26.78 24.35C26.78 25.05 26.21 25.62 25.51 25.62Z" fill="black"/>
</svg>
