<svg width="32" height="32" viewBox="0 0 32 32" fill="none" xmlns="http://www.w3.org/2000/svg">
<path d="M17.07 21.64V4.37H15.07V21.6C13.73 22 12.74 23.24 12.74 24.71C12.74 26.51 14.2 27.97 16.01 27.97C17.82 27.97 19.28 26.51 19.28 24.71C19.28 23.29 18.36 22.08 17.08 21.64H17.07ZM16 25.98C15.3 25.98 14.73 25.41 14.73 24.72C14.73 24.03 15.3 23.45 16 23.45C16.7 23.45 17.27 24.02 17.27 24.72C17.27 25.42 16.7 25.98 16 25.98Z" fill="black"/>
<path d="M7.64988 3.67C5.84988 3.67 4.37988 5.13 4.37988 6.94C4.37988 8.39 5.33988 9.61 6.64988 10.03V27.63H8.64988V10.02C9.95988 9.59 10.9199 8.38 10.9199 6.93C10.9199 5.13 9.45988 3.66 7.64988 3.66V3.67ZM7.64988 8.2C6.94988 8.2 6.37988 7.63 6.37988 6.94C6.37988 6.25 6.94988 5.67 7.64988 5.67C8.34988 5.67 8.91988 6.24 8.91988 6.94C8.91988 7.64 8.34988 8.2 7.64988 8.2Z" fill="black"/>
<path d="M24.3501 3.67C22.5501 3.67 21.0801 5.13 21.0801 6.94C21.0801 8.39 22.0401 9.61 23.3501 10.03V27.63H25.3501V10.02C26.6601 9.59 27.6201 8.38 27.6201 6.93C27.6201 5.13 26.1601 3.66 24.3501 3.66V3.67ZM24.3501 8.2C23.6501 8.2 23.0801 7.63 23.0801 6.94C23.0801 6.25 23.6501 5.67 24.3501 5.67C25.0501 5.67 25.6201 6.24 25.6201 6.94C25.6201 7.64 25.0501 8.2 24.3501 8.2Z" fill="black"/>
</svg>
