<svg width="32" height="32" viewBox="0 0 32 32" fill="none" xmlns="http://www.w3.org/2000/svg">
<path d="M21.07 4.65V2.23H19.07V4.65H12.92V2.23H10.92V4.65H7.43001L4.26001 7.82V25.72L7.43001 28.89H24.55L27.72 25.72V7.82L24.55 4.65H21.06H21.07ZM23.73 26.89H8.26001L6.26001 24.89V13.16H25.72V24.89L23.72 26.89H23.73ZM25.73 11.16H6.27001V8.65L8.27001 6.65H10.93V9.07H12.93V6.65H19.08V9.07H21.08V6.65H23.74L25.74 8.65V11.16H25.73Z" fill="black"/>
<path d="M15.23 22.06H14.89L11.04 17.68L9.54004 19L13.99 24.06H16.25L22.51 15.36L20.88 14.19L15.23 22.06Z" fill="black"/>
</svg>
