<svg width="32" height="32" viewBox="0 0 32 32" fill="none" xmlns="http://www.w3.org/2000/svg">
<path d="M23.48 12.04L20.37 8.92999H11.64L8.53003 12.04V20.77L11.64 23.88H20.37L23.48 20.77V12.04ZM21.48 19.94L19.54 21.88H12.47L10.53 19.94V12.87L12.47 10.93H19.54L21.48 12.87V19.94Z" fill="black"/>
<path d="M17 3.11H15V6.27H17V3.11Z" fill="black"/>
<path d="M8.22183 5.57389L6.69019 6.86L8.72224 9.27999L10.2539 7.99388L8.22183 5.57389Z" fill="black"/>
<path d="M3.08617 13.1064L2.73853 15.076L5.85042 15.6253L6.19806 13.6557L3.08617 13.1064Z" fill="black"/>
<path d="M6.73075 20.5901L3.99438 22.1705L4.99469 23.9024L7.73105 22.3219L6.73075 20.5901Z" fill="black"/>
<path d="M11.5891 25.5777L10.5083 28.5471L12.3877 29.2312L13.4685 26.2617L11.5891 25.5777Z" fill="black"/>
<path d="M20.4015 25.5754L18.522 26.2591L19.6022 29.2287L21.4817 28.545L20.4015 25.5754Z" fill="black"/>
<path d="M25.2685 20.5956L24.2688 22.3278L27.0057 23.9073L28.0054 22.1751L25.2685 20.5956Z" fill="black"/>
<path d="M28.9107 13.1166L25.7988 13.6658L26.1465 15.6354L29.2584 15.0861L28.9107 13.1166Z" fill="black"/>
<path d="M23.7724 5.57909L21.7407 7.99944L23.2726 9.28528L25.3042 6.86493L23.7724 5.57909Z" fill="black"/>
</svg>
