<svg width="32" height="32" viewBox="0 0 32 32" fill="none" xmlns="http://www.w3.org/2000/svg">
<path d="M9.58998 16.42L8.47998 21.49L10.23 23.32L15.34 22.44L29.76 8.94L24.01 2.92L9.59998 16.41L9.58998 16.42ZM14.4 20.57L10.93 21.16L10.65 20.87L11.4 17.44L13.01 15.93L16 19.06L14.39 20.57H14.4ZM17.47 17.7L14.48 14.57L23.92 5.73L26.91 8.86L17.47 17.7Z" fill="black"/>
<path d="M25.1801 28.47L28.0801 25.58V15.59H26.0801V24.75L24.3601 26.47H7.54007L5.82007 24.75V7.93L7.54007 6.21H16.7001V4.21H6.71007L3.82007 7.1V25.58L6.71007 28.47H25.1801Z" fill="black"/>
</svg>
