<svg width="32" height="32" viewBox="0 0 32 32" fill="none" xmlns="http://www.w3.org/2000/svg">
<path d="M18.57 8.80999C17.55 7.98999 16.08 7.66999 14.73 7.96999C13.04 8.33999 12.23 9.46999 11.71 10.41L13.46 11.37C13.86 10.64 14.31 10.11 15.15 9.91999C15.73 9.78999 16.64 9.82999 17.3 10.37C17.8 10.77 18.06 11.4 18.06 12.22C18.06 14.28 15.83 14.72 15.58 14.76L14.74 14.9V19.22H16.74V16.52C18.2 16.02 20.06 14.73 20.06 12.22C20.06 10.4 19.24 9.35999 18.56 8.80999H18.57Z" fill="black"/>
<path d="M16.78 20.44H14.78V23.04H16.78V20.44Z" fill="black"/>
<path d="M6.65999 3.64L3.73999 6.56V25.24L6.65999 28.16H25.34L28.26 25.24V6.56L25.34 3.64H6.65999ZM26.27 24.42L24.52 26.17H7.48999L5.73999 24.42V7.39L7.48999 5.64H24.52L26.27 7.39V24.42Z" fill="black"/>
</svg>
