<svg width="32" height="32" viewBox="0 0 32 32" fill="none" xmlns="http://www.w3.org/2000/svg">
<path d="M29.3501 5.7L28.0001 4.22L23.5901 8.23L22.5901 7.24H9.40007L2.32007 14.29V17.73L7.48007 22.88L2.64007 27.28L3.99007 28.76L8.90007 24.3L9.39007 24.79H22.5801L29.6601 17.74V14.3L25.0001 9.65L29.3301 5.71L29.3501 5.7ZM4.33007 16.88V15.1L10.2301 9.21H21.7701L22.1101 9.56L19.0601 12.33C18.2301 11.63 17.1701 11.19 16.0001 11.19C13.3501 11.19 11.2101 13.34 11.2101 15.98C11.2101 16.99 11.5301 17.92 12.0601 18.7L8.98007 21.5L4.33007 16.87V16.88ZM27.6701 15.12V16.9L21.7701 22.79H10.5701L13.5201 20.1C14.2401 20.54 15.0901 20.81 16.0001 20.81C18.6501 20.81 20.7901 18.66 20.7901 16.02C20.7901 15.27 20.6001 14.57 20.3001 13.94L23.5301 11L27.6701 15.13V15.12Z" fill="black"/>
</svg>
