<svg width="32" height="32" viewBox="0 0 32 32" fill="none" xmlns="http://www.w3.org/2000/svg">
<path d="M29.3501 5.7L28.0001 4.22L23.4501 8.35L22.5901 7.5H9.40007L2.32007 14.55V18.57H4.32007V15.38L10.2201 9.49H21.7601L21.9601 9.7L18.8601 12.51C18.0301 11.98 17.0401 11.68 15.9801 11.68C12.9901 11.68 10.5701 14.11 10.5701 17.1C10.5701 17.97 10.7801 18.8 11.1501 19.53L2.64007 27.27L3.99007 28.75L12.3801 21.12C13.3401 21.98 14.6001 22.51 15.9901 22.51C18.9801 22.51 21.4001 20.08 21.4001 17.09C21.4001 15.89 21.0001 14.78 20.3301 13.88L23.3701 11.11L27.6501 15.38V18.57H29.6501V14.55L24.8501 9.76L29.3201 5.69L29.3501 5.7ZM12.5901 17.09C12.5901 15.21 14.1201 13.67 16.0001 13.67C16.4601 13.67 16.9001 13.76 17.3101 13.93L12.7501 18.07C12.6501 17.75 12.5901 17.43 12.5901 17.08V17.09ZM19.4101 17.09C19.4101 18.97 17.8801 20.51 16.0001 20.51C15.2001 20.51 14.4701 20.22 13.8901 19.76L18.8601 15.24C19.2101 15.78 19.4201 16.41 19.4201 17.1L19.4101 17.09Z" fill="black"/>
</svg>
