<svg width="32" height="32" viewBox="0 0 32 32" fill="none" xmlns="http://www.w3.org/2000/svg">
<path d="M9.96998 15.08H4.98998L3.97998 13.24V5.48001L4.98998 3.64001H9.96998L10.98 5.48001V13.24L9.96998 15.08ZM6.17998 13.08H8.78998L8.97998 12.73V5.99001L8.78998 5.64001H6.17998L5.98998 5.99001V12.73L6.17998 13.08Z" fill="black"/>
<path d="M9.96998 28.37H4.98998L3.97998 26.53V18.77L4.98998 16.93H9.96998L10.98 18.77V26.53L9.96998 28.37ZM6.17998 26.37H8.78998L8.97998 26.02V19.28L8.78998 18.93H6.17998L5.98998 19.28V26.02L6.17998 26.37Z" fill="black"/>
<path d="M18.51 15.08H13.53L12.52 13.24V5.48001L13.53 3.64001H18.51L19.52 5.48001V13.24L18.51 15.08ZM14.72 13.08H17.33L17.52 12.73V5.99001L17.33 5.64001H14.72L14.53 5.99001V12.73L14.72 13.08Z" fill="black"/>
<path d="M18.51 28.37H13.53L12.52 26.53V18.77L13.53 16.93H18.51L19.52 18.77V26.53L18.51 28.37ZM14.72 26.37H17.33L17.52 26.02V19.28L17.33 18.93H14.72L14.53 19.28V26.02L14.72 26.37Z" fill="black"/>
<path d="M27.0501 15.08H22.0701L21.0601 13.24V5.48001L22.0701 3.64001H27.0501L28.0601 5.48001V13.24L27.0501 15.08ZM23.2601 13.08H25.8701L26.0601 12.73V5.99001L25.8701 5.64001H23.2601L23.0701 5.99001V12.73L23.2601 13.08Z" fill="black"/>
<path d="M27.0501 28.37H22.0701L21.0601 26.53V18.77L22.0701 16.93H27.0501L28.0601 18.77V26.53L27.0501 28.37ZM23.2601 26.37H25.8701L26.0601 26.02V19.28L25.8701 18.93H23.2601L23.0701 19.28V26.02L23.2601 26.37Z" fill="black"/>
</svg>
