<svg width="32" height="32" viewBox="0 0 32 32" fill="none" xmlns="http://www.w3.org/2000/svg">
<path d="M9.34002 14.08H5.64002L5.02002 14.07V5.73L5.64002 4.63H9.34002H9.97002V14.08H9.34002Z" fill="black"/>
<path d="M10.97 15.08L4.02002 15.05V5.46L5.07002 3.63H10.97V15.07V15.08ZM6.02002 6V13.08H8.97002V5.64H6.23002L6.02002 6Z" fill="black"/>
<path d="M9.34002 27.37H5.64002L5.02002 26.27V17.92H5.64002H9.34002H9.97002V27.37H9.34002Z" fill="black"/>
<path d="M10.97 28.37H5.07002L4.02002 26.54V16.93H10.97V28.37ZM6.23002 26.37H8.97002V18.93H6.02002V26.01L6.23002 26.37Z" fill="black"/>
<path d="M17.8401 14.08H14.2201H13.5901V4.63H14.2201H17.8401H18.4601V14.08H17.8401Z" fill="black"/>
<path d="M19.4601 15.08H12.5901V3.63H19.4601V15.07V15.08ZM14.5901 13.08H17.4601V5.64H14.5901V13.08Z" fill="black"/>
<path d="M17.8401 27.37H14.2201H13.5901V17.92H14.2201H17.8401H18.4601V27.37H17.8401Z" fill="black"/>
<path d="M19.4601 28.37H12.5901V16.93H19.4601V28.37ZM14.5901 26.37H17.4601V18.93H14.5901V26.37Z" fill="black"/>
<path d="M26.3599 14.08H22.5099H21.8799V4.63H22.5099H26.3599L26.9799 5.73V14.08H26.3599Z" fill="black"/>
<path d="M27.9799 15.08H20.8799V3.63H26.9299L27.9799 5.46V15.07V15.08ZM22.8799 13.08H25.9799V6L25.7699 5.64H22.8799V13.08Z" fill="black"/>
<path d="M26.3599 27.37H22.5099H21.8799V17.92H22.5099H26.3599H26.9799V26.27L26.3599 27.37Z" fill="black"/>
<path d="M26.9399 28.37H20.8899V16.93H27.9899V26.54L26.9399 28.37ZM22.8799 26.37H25.7699L25.9799 26.01V18.93H22.8799V26.37Z" fill="black"/>
</svg>
