<svg width="32" height="32" viewBox="0 0 32 32" fill="none" xmlns="http://www.w3.org/2000/svg">
<path d="M27.0299 14.08H19.0099H17.9099V4.63H19.0099H25.9299L27.0299 5.73V12.98V14.08Z" fill="black"/>
<path d="M28.0299 15.08H16.9099V3.63H26.3399L28.0199 5.31V15.07L28.0299 15.08ZM18.9099 13.08H26.0299V6.15L25.5199 5.64H18.9199V13.08H18.9099Z" fill="black"/>
<path d="M12.99 14.08H4.96997V12.98V5.73L6.06997 4.63H12.99H14.09V14.08H12.99Z" fill="black"/>
<path d="M15.09 15.08H3.96997V5.32001L5.64997 3.64001H15.08V15.08H15.09ZM5.96997 13.08H13.09V5.64001H6.48997L5.97997 6.15001V13.08H5.96997Z" fill="black"/>
<path d="M25.9299 27.37H19.0099H17.9099V17.92H19.0099H27.0299V19.02V26.27L25.9299 27.37Z" fill="black"/>
<path d="M26.3399 28.37H16.9099V16.93H28.0299V26.69L26.3499 28.37H26.3399ZM18.9099 26.37H25.5099L26.0199 25.86V18.93H18.8999V26.37H18.9099Z" fill="black"/>
<path d="M12.99 27.37H6.06997L4.96997 26.27V17.92H6.06997H12.99H14.09V27.37H12.99Z" fill="black"/>
<path d="M15.09 28.37H5.65998L3.97998 26.69V16.93H15.1V28.37H15.09ZM6.47998 26.37H13.08V18.93H5.95998V25.86L6.46998 26.37H6.47998Z" fill="black"/>
</svg>
