<svg width="32" height="32" viewBox="0 0 32 32" fill="none" xmlns="http://www.w3.org/2000/svg">
<path d="M26.3399 15.08H18.5899L16.9099 13.4V5.32001L18.5899 3.64001H26.3399L28.0199 5.32001V13.4L26.3399 15.08ZM19.4199 13.08H25.5099L26.0199 12.57V6.15001L25.5099 5.64001H19.4199L18.9099 6.15001V12.57L19.4199 13.08Z" fill="black"/>
<path d="M13.41 15.08H5.65998L3.97998 13.4V5.32001L5.65998 3.64001H13.41L15.09 5.32001V13.4L13.41 15.08ZM6.47998 13.08H12.57L13.08 12.57V6.15001L12.57 5.64001H6.47998L5.96998 6.15001V12.57L6.47998 13.08Z" fill="black"/>
<path d="M26.3399 28.37H18.5899L16.9099 26.69V18.61L18.5899 16.93H26.3399L28.0199 18.61V26.69L26.3399 28.37ZM19.4199 26.37H25.5099L26.0199 25.86V19.44L25.5099 18.93H19.4199L18.9099 19.44V25.86L19.4199 26.37Z" fill="black"/>
<path d="M13.41 28.37H5.65998L3.97998 26.69V18.61L5.65998 16.93H13.41L15.09 18.61V26.69L13.41 28.37ZM6.47998 26.37H12.57L13.08 25.86V19.44L12.57 18.93H6.47998L5.96998 19.44V25.86L6.47998 26.37Z" fill="black"/>
</svg>
