<svg width="32" height="32" viewBox="0 0 32 32" fill="none" xmlns="http://www.w3.org/2000/svg">
<path d="M26.34 15.08H5.65998L3.97998 13.4V5.32001L5.65998 3.64001H26.35L28.03 5.32001V13.4L26.35 15.08H26.34ZM6.47998 13.08H25.51L26.02 12.57V6.15001L25.51 5.64001H6.47998L5.96998 6.15001V12.57L6.47998 13.08Z" fill="black"/>
<path d="M26.34 28.37H5.65998L3.97998 26.69V18.61L5.65998 16.93H26.35L28.03 18.61V26.69L26.35 28.37H26.34ZM6.47998 26.37H25.51L26.02 25.86V19.44L25.51 18.93H6.47998L5.96998 19.44V25.86L6.47998 26.37Z" fill="black"/>
</svg>
