<svg width="32" height="32" viewBox="0 0 32 32" fill="none" xmlns="http://www.w3.org/2000/svg">
<path d="M4.96997 14.08V5.73L6.06997 4.63H25.93L27.03 5.73V14.08H25.93H6.06997H4.96997Z" fill="black"/>
<path d="M28.03 15.08H3.96997V5.32001L5.64997 3.64001H26.34L28.02 5.32001V15.08H28.03ZM5.96997 13.08H26.02V6.15001L25.51 5.64001H6.47997L5.96997 6.15001V13.08Z" fill="black"/>
<path d="M4.96997 26.27V17.92H6.06997H25.93H27.03V26.27L25.93 27.37H6.06997L4.96997 26.27Z" fill="black"/>
<path d="M26.34 28.37H5.65998L3.97998 26.69V16.93H28.03V26.69L26.35 28.37H26.34ZM6.47998 26.37H25.51L26.02 25.86V18.93H5.96998V25.86L6.47998 26.37Z" fill="black"/>
</svg>
