<svg width="32" height="32" viewBox="0 0 32 32" fill="none" xmlns="http://www.w3.org/2000/svg">
<path d="M26.7899 15.16C26.7899 11.16 24.7799 7.49 21.4099 5.33L19.8699 6.21C19.8699 6.38 19.8799 6.54 19.8799 6.71C19.8799 14.05 13.9099 20.02 6.56989 20.02H6.24989L5.38989 21.56C7.55989 24.85 11.1999 26.82 15.1299 26.82C21.5599 26.82 26.7899 21.59 26.7899 15.16ZM15.1199 24.82C12.4999 24.82 10.0299 23.77 8.22989 21.93C15.4099 21.15 21.1099 15.38 21.7999 8.18C23.6899 9.98 24.7799 12.48 24.7799 15.16C24.7799 20.49 20.4499 24.82 15.1199 24.82Z" fill="black"/>
<path d="M15.3201 9.10001H12.1001V11.1H15.3201V9.10001Z" fill="black"/>
<path d="M8.59 9.10001H5.5V11.1H8.59V9.10001Z" fill="black"/>
<path d="M11.4099 11.92H9.40991V15.02H11.4099V11.92Z" fill="black"/>
<path d="M11.4099 5.2H9.40991V8.14H11.4099V5.2Z" fill="black"/>
</svg>
