<svg width="32" height="32" viewBox="0 0 32 32" fill="none" xmlns="http://www.w3.org/2000/svg">
<path d="M27.7001 27.39V20.77L24.6 17.67H7.40005L4.30005 20.77V27.39H6.30005V21.6L8.23005 19.67H23.7701L25.7001 21.6V27.39H27.7001Z" fill="black"/>
<path d="M21.99 9.6C21.99 6.3 19.3 3.61 16 3.61C12.7 3.61 10.01 6.3 10.01 9.6C10.01 12.9 12.7 15.59 16 15.59C19.3 15.59 21.99 12.9 21.99 9.6ZM12.01 9.6C12.01 7.4 13.8 5.61 16 5.61C18.2 5.61 19.99 7.4 19.99 9.6C19.99 11.8 18.2 13.59 16 13.59C13.8 13.59 12.01 11.8 12.01 9.6Z" fill="black"/>
</svg>
