<svg width="32" height="32" viewBox="0 0 32 32" fill="none" xmlns="http://www.w3.org/2000/svg">
<path d="M9.02002 22.53H7.02002V26.74H9.02002V22.53Z" fill="black"/>
<path d="M14.3301 22.53H12.3301V26.74H14.3301V22.53Z" fill="black"/>
<path d="M19.6299 22.53H17.6299V26.74H19.6299V22.53Z" fill="black"/>
<path d="M24.9399 22.53H22.9399V26.74H24.9399V22.53Z" fill="black"/>
<path d="M19.5301 7.29999L17.0301 4.25999H10.5001L8.35008 6.44999V9.98999H5.56008L3.58008 12.36V17.85L5.61008 20.21H26.5501L28.4301 17.82V12.47L24.2701 7.28999H19.5201L19.5301 7.29999ZM26.4301 17.14L25.5801 18.22H6.52008L5.57008 17.11V13.08L6.48008 11.98H10.3301V7.25999L11.3201 6.24999H16.0701L18.5701 9.28999H23.3001L26.4201 13.17V17.13L26.4301 17.14Z" fill="black"/>
</svg>
