<svg width="32" height="32" viewBox="0 0 32 32" fill="none" xmlns="http://www.w3.org/2000/svg">
<path d="M21.9 7.07L21.71 13.52L23.51 13.57L23.65 8.98C25.2 10.92 26.2 13.59 26.2 15.93C26.2 21.58 21.61 26.17 15.96 26.17C10.31 26.17 5.71997 21.58 5.71997 15.93C5.71997 10.28 10.31 5.71 15.96 5.71V3.71C9.20997 3.71 3.71997 9.2 3.71997 15.95C3.71997 22.7 9.20997 28.19 15.96 28.19C22.71 28.19 28.2 22.7 28.2 15.95C28.2 13.26 27.15 10.33 25.45 8.07L29.57 9.27L30.07 7.54L23.81 5.71L21.91 7.07H21.9Z" fill="black"/>
</svg>
