<svg width="32" height="32" viewBox="0 0 32 32" fill="none" xmlns="http://www.w3.org/2000/svg">
<path d="M15.9999 26.27C10.3099 26.27 5.66992 21.64 5.66992 15.94H3.66992C3.66992 22.74 9.19992 28.27 15.9999 28.27C19.8699 28.27 23.2399 26.56 25.8199 23.32L25.8399 27.54H27.6399L27.6099 21.29L25.8199 19.89L19.8499 21.47L20.3099 23.21L24.1799 22.19C21.9899 24.86 19.1899 26.27 15.9999 26.27Z" fill="black"/>
<path d="M15.9999 3.62C12.1999 3.62 8.51991 5.48 6.21991 8.45V4.46H4.40991V10.71L6.19991 12.11L12.1799 10.55L11.7299 8.81L7.67991 9.87C9.58991 7.3 12.7999 5.62 15.9999 5.62C21.6899 5.62 26.3299 10.25 26.3299 15.95H28.3299C28.3299 9.15 22.7999 3.62 15.9999 3.62Z" fill="black"/>
</svg>
