<svg width="32" height="32" viewBox="0 0 32 32" fill="none" xmlns="http://www.w3.org/2000/svg">
<path d="M13.29 3.61C8.04001 3.61 3.76001 7.88 3.76001 13.14C3.76001 18.4 8.03001 22.67 13.29 22.67C15.48 22.67 17.49 21.92 19.1 20.67L26.53 28.1L27.94 26.69L20.54 19.3C21.95 17.64 22.8 15.49 22.8 13.15C22.8 7.9 18.53 3.62 13.27 3.62L13.29 3.61ZM5.76001 13.14C5.76001 8.99 9.14001 5.61 13.29 5.61C17.44 5.61 20.82 8.99 20.82 13.14C20.82 17.29 17.44 20.67 13.29 20.67C9.14001 20.67 5.76001 17.29 5.76001 13.14Z" fill="black"/>
</svg>
