<svg width="32" height="32" viewBox="0 0 32 32" fill="none" xmlns="http://www.w3.org/2000/svg">
<path d="M24.9701 11.77L27.4801 9.26L22.7401 4.52L20.2301 7.03C19.9501 6.9 19.6501 6.78 19.3501 6.67V3.12H12.6401V6.67C12.3401 6.78 12.0501 6.9 11.7601 7.03L9.25011 4.52L4.51011 9.26L7.02011 11.77C6.89011 12.05 6.77011 12.35 6.66011 12.65H3.11011V19.36H6.66011C6.77011 19.66 6.89011 19.95 7.02011 20.24L4.51011 22.75L9.25011 27.49L11.7601 24.98C12.0401 25.11 12.3401 25.23 12.6401 25.34V28.89H19.3501V25.34C19.6501 25.23 19.9401 25.11 20.2301 24.98L22.7401 27.49L27.4801 22.75L24.9701 20.24C25.1001 19.96 25.2201 19.66 25.3301 19.36H28.8801V12.65H25.3301C25.2201 12.35 25.1001 12.06 24.9701 11.77ZM26.8901 17.35H23.8401L23.6401 18.09C23.4601 18.74 23.2101 19.35 22.8801 19.92L22.5001 20.58L24.6501 22.73L22.7301 24.65L20.5801 22.5L19.9201 22.88C19.3501 23.2 18.7401 23.46 18.0901 23.64L17.3501 23.84V26.89H14.6401V23.84L13.9001 23.64C13.2501 23.46 12.6401 23.21 12.0701 22.88L11.4101 22.5L9.26011 24.65L7.34011 22.73L9.49011 20.58L9.11011 19.92C8.79011 19.35 8.53011 18.74 8.35011 18.09L8.15011 17.35H5.10011V14.64H8.15011L8.35011 13.9C8.53011 13.25 8.78011 12.64 9.11011 12.07L9.49011 11.41L7.34011 9.26L9.26011 7.34L11.4101 9.49L12.0701 9.11C12.6401 8.79 13.2501 8.53 13.9001 8.35L14.6401 8.15V5.1H17.3501V8.15L18.0901 8.35C18.7401 8.53 19.3501 8.78 19.9201 9.11L20.5801 9.49L22.7301 7.34L24.6501 9.26L22.5001 11.41L22.8801 12.07C23.2001 12.64 23.4601 13.25 23.6401 13.9L23.8401 14.64H26.8901V17.35Z" fill="black"/>
<path d="M16 11.21C13.36 11.21 11.21 13.36 11.21 16C11.21 18.64 13.36 20.79 16 20.79C18.64 20.79 20.79 18.64 20.79 16C20.79 13.36 18.64 11.21 16 11.21ZM16 18.79C14.46 18.79 13.21 17.54 13.21 16C13.21 14.46 14.46 13.21 16 13.21C17.54 13.21 18.79 14.46 18.79 16C18.79 17.54 17.54 18.79 16 18.79Z" fill="black"/>
</svg>
