<svg width="32" height="32" viewBox="0 0 32 32" fill="none" xmlns="http://www.w3.org/2000/svg">
<path d="M15.9401 10.42C17.0999 10.42 18.0401 9.4798 18.0401 8.32C18.0401 7.1602 17.0999 6.22 15.9401 6.22C14.7803 6.22 13.8401 7.1602 13.8401 8.32C13.8401 9.4798 14.7803 10.42 15.9401 10.42Z" fill="black"/>
<path d="M13.96 16C13.96 17.16 14.9 18.1 16.06 18.1C17.22 18.1 18.16 17.16 18.16 16C18.16 14.84 17.22 13.9 16.06 13.9C14.9 13.9 13.96 14.84 13.96 16Z" fill="black"/>
<path d="M15.9401 25.78C17.1001 25.78 18.0401 24.84 18.0401 23.68C18.0401 22.52 17.1001 21.58 15.9401 21.58C14.7801 21.58 13.8401 22.52 13.8401 23.68C13.8401 24.84 14.7801 25.78 15.9401 25.78Z" fill="black"/>
</svg>
