<svg width="32" height="32" viewBox="0 0 32 32" fill="none" xmlns="http://www.w3.org/2000/svg">
<path d="M8.31997 13.96C7.15997 13.96 6.21997 14.9 6.21997 16.06C6.21997 17.22 7.15997 18.16 8.31997 18.16C9.47997 18.16 10.42 17.22 10.42 16.06C10.42 14.9 9.47997 13.96 8.31997 13.96Z" fill="black"/>
<path d="M18.0999 15.94C18.0999 14.78 17.1599 13.84 15.9999 13.84C14.8399 13.84 13.8999 14.78 13.8999 15.94C13.8999 17.1 14.8399 18.04 15.9999 18.04C17.1599 18.04 18.0999 17.1 18.0999 15.94Z" fill="black"/>
<path d="M25.7801 16.06C25.7801 14.9 24.8401 13.96 23.6801 13.96C22.5201 13.96 21.5801 14.9 21.5801 16.06C21.5801 17.22 22.5201 18.16 23.6801 18.16C24.8401 18.16 25.7801 17.22 25.7801 16.06Z" fill="black"/>
</svg>
