<svg width="32" height="32" viewBox="0 0 32 32" fill="none" xmlns="http://www.w3.org/2000/svg">
<path d="M18.5899 3.63L16.9099 5.31V13.39L18.5899 15.07H26.3399L28.0199 13.39V5.32L26.3399 3.64H18.5899V3.63ZM26.0299 12.57L25.5199 13.08H19.4299L18.9199 12.57V6.15L19.4299 5.64H25.5199L26.0299 6.15V12.57Z" fill="black"/>
<path d="M3.96997 13.39L5.64997 15.07H13.4L15.08 13.39V5.32L13.4 3.64H5.64997L3.96997 5.32V13.4V13.39ZM5.96997 6.14L6.47997 5.63H12.57L13.08 6.14V12.56L12.57 13.07H6.47997L5.96997 12.56V6.14Z" fill="black"/>
<path d="M18.5899 16.92L16.9099 18.6V26.68L18.5899 28.36H26.3399L28.0199 26.68V18.6L26.3399 16.92H18.5899ZM26.0299 25.86L25.5199 26.37H19.4299L18.9199 25.86V19.44L19.4299 18.93H25.5199L26.0299 19.44V25.86Z" fill="black"/>
<path d="M13.41 28.37L15.09 26.69V18.61L13.41 16.93H5.65998L3.97998 18.61V26.69L5.65998 28.37H13.41ZM5.96998 19.43L6.47998 18.92H12.57L13.08 19.43V25.85L12.57 26.36H6.47998L5.96998 25.85V19.43Z" fill="black"/>
</svg>
