<svg width="32" height="32" viewBox="0 0 32 32" fill="none" xmlns="http://www.w3.org/2000/svg">
<path d="M9.77995 16C10.7906 16 11.61 15.1807 11.61 14.17C11.61 13.1593 10.7906 12.34 9.77995 12.34C8.76927 12.34 7.94995 13.1593 7.94995 14.17C7.94995 15.1807 8.76927 16 9.77995 16Z" fill="black"/>
<path d="M15.9999 16C17.0106 16 17.8299 15.1807 17.8299 14.17C17.8299 13.1593 17.0106 12.34 15.9999 12.34C14.9892 12.34 14.1699 13.1593 14.1699 14.17C14.1699 15.1807 14.9892 16 15.9999 16Z" fill="black"/>
<path d="M22.13 16C23.1407 16 23.96 15.1807 23.96 14.17C23.96 13.1593 23.1407 12.34 22.13 12.34C21.1194 12.34 20.3 13.1593 20.3 14.17C20.3 15.1807 21.1194 16 22.13 16Z" fill="black"/>
<path d="M26.7101 3.9H5.2901L2.3501 6.84V20.74L5.2801 23.67H11.6601V29.03L19.2701 23.67H26.6901L29.6301 20.73V6.83L26.6901 3.89L26.7101 3.9ZM27.6401 19.91L25.8801 21.67H18.6501L13.6801 25.17V21.68L6.1301 21.66L4.3701 19.9V7.66L6.1301 5.9H25.8801L27.6401 7.66V19.9V19.91Z" fill="black"/>
</svg>
