<svg width="32" height="32" viewBox="0 0 32 32" fill="none" xmlns="http://www.w3.org/2000/svg">
<path d="M21.4101 17.09C21.4101 14.1 18.9801 11.67 16.0001 11.67C13.0201 11.67 10.5901 14.1 10.5901 17.09C10.5901 20.08 13.0201 22.51 16.0001 22.51C18.9801 22.51 21.4101 20.08 21.4101 17.09ZM12.5901 17.09C12.5901 15.21 14.1201 13.67 16.0001 13.67C17.8801 13.67 19.4101 15.2 19.4101 17.09C19.4101 18.98 17.8801 20.51 16.0001 20.51C14.1201 20.51 12.5901 18.98 12.5901 17.09Z" fill="black"/>
<path d="M9.40008 7.49001L2.33008 14.55V18.57H4.33008V15.38L10.2301 9.49001L21.7701 9.50001L27.6701 15.38V18.58H29.6701V14.55L22.6001 7.50001L9.40008 7.49001Z" fill="black"/>
</svg>
