<svg width="32" height="32" viewBox="0 0 32 32" fill="none" xmlns="http://www.w3.org/2000/svg">
<path d="M19.45 4.02V6.02H24.29L24.3799 6.11L19.7099 10.95L21.15 12.34L25.79 7.52L25.9799 7.71V12.55H27.9799V6.88L25.12 4.02H19.45Z" fill="black"/>
<path d="M4.02002 6.88V12.55H6.02002V7.71L6.18002 7.55L11.07 12.27L12.46 10.83L7.59002 6.13L7.71002 6.02H12.55V4.02H6.88002L4.02002 6.88Z" fill="black"/>
<path d="M7.67002 25.94L12.29 21.15L10.85 19.76L6.25002 24.53L6.02002 24.29V19.45H4.02002V25.12L6.88002 27.98H12.55V25.98H7.71002L7.67002 25.94Z" fill="black"/>
<path d="M25.9799 24.29L25.77 24.5L20.93 19.83L19.54 21.27L24.36 25.92L24.29 25.98H19.45V27.98H25.12L27.9799 25.12V19.45H25.9799V24.29Z" fill="black"/>
</svg>
