<svg width="25" height="25" viewBox="0 0 25 25" fill="none" xmlns="http://www.w3.org/2000/svg">
<rect width="25" height="25" fill="black"/>
<path d="M9.14062 8.89062V16H7.91504L4.72656 10.9072V16H3.50098V8.89062H4.72656L7.9248 13.9932V8.89062H9.14062ZM13.3789 8.89062V16H12.1631V8.89062H13.3789ZM15.6104 8.89062V9.86719H9.95117V8.89062H15.6104ZM20.6104 13.6855H21.8311C21.792 14.151 21.6618 14.5661 21.4404 14.9307C21.2191 15.292 20.9082 15.5768 20.5078 15.7852C20.1074 15.9935 19.6208 16.0977 19.0479 16.0977C18.6084 16.0977 18.2129 16.0195 17.8613 15.8633C17.5098 15.7038 17.2087 15.4792 16.958 15.1895C16.7074 14.8965 16.5153 14.5433 16.3818 14.1299C16.2516 13.7165 16.1865 13.2542 16.1865 12.7432V12.1523C16.1865 11.6413 16.2533 11.179 16.3867 10.7656C16.5234 10.3522 16.7188 9.99902 16.9727 9.70605C17.2266 9.40983 17.5309 9.18359 17.8857 9.02734C18.2438 8.87109 18.6458 8.79297 19.0918 8.79297C19.6582 8.79297 20.1367 8.89714 20.5273 9.10547C20.918 9.3138 21.2207 9.60189 21.4355 9.96973C21.6536 10.3376 21.7871 10.7591 21.8359 11.2344H20.6152C20.5827 10.9284 20.5111 10.6663 20.4004 10.4482C20.293 10.2301 20.1335 10.0641 19.9219 9.9502C19.7103 9.83301 19.4336 9.77441 19.0918 9.77441C18.8118 9.77441 18.5677 9.8265 18.3594 9.93066C18.151 10.0348 17.9769 10.1878 17.8369 10.3896C17.6969 10.5915 17.5911 10.8405 17.5195 11.1367C17.4512 11.4297 17.417 11.765 17.417 12.1426V12.7432C17.417 13.1012 17.4479 13.4268 17.5098 13.7197C17.5749 14.0094 17.6725 14.2585 17.8027 14.4668C17.9362 14.6751 18.1055 14.8363 18.3105 14.9502C18.5156 15.0641 18.7614 15.1211 19.0479 15.1211C19.3962 15.1211 19.6777 15.0658 19.8926 14.9551C20.1107 14.8444 20.2751 14.6833 20.3857 14.4717C20.4997 14.2568 20.5745 13.9948 20.6104 13.6855Z" fill="white"/>
</svg>
